<?xml version="1.0" encoding="utf-8" standalone="no"?>
<!DOCTYPE svg PUBLIC "-//W3C//DTD SVG 1.1//EN"
  "http://www.w3.org/Graphics/SVG/1.1/DTD/svg11.dtd">
<svg xmlns:xlink="http://www.w3.org/1999/xlink" width="576pt" height="345.6pt" viewBox="0 0 576 345.6" xmlns="http://www.w3.org/2000/svg" version="1.1">
 <metadata>
  <rdf:RDF xmlns:dc="http://purl.org/dc/elements/1.1/" xmlns:cc="http://creativecommons.org/ns#" xmlns:rdf="http://www.w3.org/1999/02/22-rdf-syntax-ns#">
   <cc:Work>
    <dc:type rdf:resource="http://purl.org/dc/dcmitype/StillImage"/>
    <dc:date>2026-01-16T16:31:04.744032</dc:date>
    <dc:format>image/svg+xml</dc:format>
    <dc:creator>
     <cc:Agent>
      <dc:title>Matplotlib v3.10.8, https://matplotlib.org/</dc:title>
     </cc:Agent>
    </dc:creator>
   </cc:Work>
  </rdf:RDF>
 </metadata>
 <defs>
  <style type="text/css">*{stroke-linejoin: round; stroke-linecap: butt}</style>
 </defs>
 <g id="figure_1">
  <g id="patch_1">
   <path d="M 0 345.6 
L 576 345.6 
L 576 0 
L 0 0 
z
" style="fill: #ffffff"/>
  </g>
  <g id="axes_1">
   <g id="patch_2">
    <path d="M 72 100.608 
L 432 100.608 
L 432 41.472 
L 72 41.472 
z
" style="fill: #ffffff"/>
   </g>
   <g id="matplotlib.axis_1">
    <g id="xtick_1">
     <g id="line2d_1">
      <defs>
       <path id="ma388d0dd23" d="M 0 0 
L 0 3.5 
" style="stroke: #000000; stroke-width: 0.8"/>
      </defs>
      <g>
       <use xlink:href="#ma388d0dd23" x="88.363636" y="100.608" style="stroke: #000000; stroke-width: 0.8"/>
      </g>
     </g>
     <g id="text_1">
      <!-- 0 -->
      <g transform="translate(85.182386 115.206437) scale(0.1 -0.1)">
       <defs>
        <path id="DejaVuSans-30" d="M 2034 4250 
Q 1547 4250 1301 3770 
Q 1056 3291 1056 2328 
Q 1056 1369 1301 889 
Q 1547 409 2034 409 
Q 2525 409 2770 889 
Q 3016 1369 3016 2328 
Q 3016 3291 2770 3770 
Q 2525 4250 2034 4250 
z
M 2034 4750 
Q 2819 4750 3233 4129 
Q 3647 3509 3647 2328 
Q 3647 1150 3233 529 
Q 2819 -91 2034 -91 
Q 1250 -91 836 529 
Q 422 1150 422 2328 
Q 422 3509 836 4129 
Q 1250 4750 2034 4750 
z
" transform="scale(0.015625)"/>
       </defs>
       <use xlink:href="#DejaVuSans-30"/>
      </g>
     </g>
    </g>
    <g id="xtick_2">
     <g id="line2d_2">
      <g>
       <use xlink:href="#ma388d0dd23" x="124.727273" y="100.608" style="stroke: #000000; stroke-width: 0.8"/>
      </g>
     </g>
     <g id="text_2">
      <!-- +rd -->
      <g transform="translate(115.395241 115.206437) scale(0.1 -0.1)">
       <defs>
        <path id="DejaVuSans-2b" d="M 2944 4013 
L 2944 2272 
L 4684 2272 
L 4684 1741 
L 2944 1741 
L 2944 0 
L 2419 0 
L 2419 1741 
L 678 1741 
L 678 2272 
L 2419 2272 
L 2419 4013 
L 2944 4013 
z
" transform="scale(0.015625)"/>
        <path id="DejaVuSans-72" d="M 2631 2963 
Q 2534 3019 2420 3045 
Q 2306 3072 2169 3072 
Q 1681 3072 1420 2755 
Q 1159 2438 1159 1844 
L 1159 0 
L 581 0 
L 581 3500 
L 1159 3500 
L 1159 2956 
Q 1341 3275 1631 3429 
Q 1922 3584 2338 3584 
Q 2397 3584 2469 3576 
Q 2541 3569 2628 3553 
L 2631 2963 
z
" transform="scale(0.015625)"/>
        <path id="DejaVuSans-64" d="M 2906 2969 
L 2906 4863 
L 3481 4863 
L 3481 0 
L 2906 0 
L 2906 525 
Q 2725 213 2448 61 
Q 2172 -91 1784 -91 
Q 1150 -91 751 415 
Q 353 922 353 1747 
Q 353 2572 751 3078 
Q 1150 3584 1784 3584 
Q 2172 3584 2448 3432 
Q 2725 3281 2906 2969 
z
M 947 1747 
Q 947 1113 1208 752 
Q 1469 391 1925 391 
Q 2381 391 2643 752 
Q 2906 1113 2906 1747 
Q 2906 2381 2643 2742 
Q 2381 3103 1925 3103 
Q 1469 3103 1208 2742 
Q 947 2381 947 1747 
z
" transform="scale(0.015625)"/>
       </defs>
       <use xlink:href="#DejaVuSans-2b"/>
       <use xlink:href="#DejaVuSans-72" transform="translate(83.789062 0)"/>
       <use xlink:href="#DejaVuSans-64" transform="translate(123.152344 0)"/>
      </g>
     </g>
    </g>
    <g id="xtick_3">
     <g id="line2d_3">
      <g>
       <use xlink:href="#ma388d0dd23" x="161.090909" y="100.608" style="stroke: #000000; stroke-width: 0.8"/>
      </g>
     </g>
     <g id="text_3">
      <!-- +ex -->
      <g transform="translate(150.952628 115.206437) scale(0.1 -0.1)">
       <defs>
        <path id="DejaVuSans-65" d="M 3597 1894 
L 3597 1613 
L 953 1613 
Q 991 1019 1311 708 
Q 1631 397 2203 397 
Q 2534 397 2845 478 
Q 3156 559 3463 722 
L 3463 178 
Q 3153 47 2828 -22 
Q 2503 -91 2169 -91 
Q 1331 -91 842 396 
Q 353 884 353 1716 
Q 353 2575 817 3079 
Q 1281 3584 2069 3584 
Q 2775 3584 3186 3129 
Q 3597 2675 3597 1894 
z
M 3022 2063 
Q 3016 2534 2758 2815 
Q 2500 3097 2075 3097 
Q 1594 3097 1305 2825 
Q 1016 2553 972 2059 
L 3022 2063 
z
" transform="scale(0.015625)"/>
        <path id="DejaVuSans-78" d="M 3513 3500 
L 2247 1797 
L 3578 0 
L 2900 0 
L 1881 1375 
L 863 0 
L 184 0 
L 1544 1831 
L 300 3500 
L 978 3500 
L 1906 2253 
L 2834 3500 
L 3513 3500 
z
" transform="scale(0.015625)"/>
       </defs>
       <use xlink:href="#DejaVuSans-2b"/>
       <use xlink:href="#DejaVuSans-65" transform="translate(83.789062 0)"/>
       <use xlink:href="#DejaVuSans-78" transform="translate(143.5625 0)"/>
      </g>
     </g>
    </g>
    <g id="xtick_4">
     <g id="line2d_4">
      <g>
       <use xlink:href="#ma388d0dd23" x="197.454545" y="100.608" style="stroke: #000000; stroke-width: 0.8"/>
      </g>
     </g>
     <g id="text_4">
      <!-- +rd -->
      <g transform="translate(188.122514 115.206437) scale(0.1 -0.1)">
       <use xlink:href="#DejaVuSans-2b"/>
       <use xlink:href="#DejaVuSans-72" transform="translate(83.789062 0)"/>
       <use xlink:href="#DejaVuSans-64" transform="translate(123.152344 0)"/>
      </g>
     </g>
    </g>
    <g id="xtick_5">
     <g id="line2d_5">
      <g>
       <use xlink:href="#ma388d0dd23" x="233.818182" y="100.608" style="stroke: #000000; stroke-width: 0.8"/>
      </g>
     </g>
     <g id="text_5">
      <!-- +ps -->
      <g transform="translate(223.849432 115.206437) scale(0.1 -0.1)">
       <defs>
        <path id="DejaVuSans-70" d="M 1159 525 
L 1159 -1331 
L 581 -1331 
L 581 3500 
L 1159 3500 
L 1159 2969 
Q 1341 3281 1617 3432 
Q 1894 3584 2278 3584 
Q 2916 3584 3314 3078 
Q 3713 2572 3713 1747 
Q 3713 922 3314 415 
Q 2916 -91 2278 -91 
Q 1894 -91 1617 61 
Q 1341 213 1159 525 
z
M 3116 1747 
Q 3116 2381 2855 2742 
Q 2594 3103 2138 3103 
Q 1681 3103 1420 2742 
Q 1159 2381 1159 1747 
Q 1159 1113 1420 752 
Q 1681 391 2138 391 
Q 2594 391 2855 752 
Q 3116 1113 3116 1747 
z
" transform="scale(0.015625)"/>
        <path id="DejaVuSans-73" d="M 2834 3397 
L 2834 2853 
Q 2591 2978 2328 3040 
Q 2066 3103 1784 3103 
Q 1356 3103 1142 2972 
Q 928 2841 928 2578 
Q 928 2378 1081 2264 
Q 1234 2150 1697 2047 
L 1894 2003 
Q 2506 1872 2764 1633 
Q 3022 1394 3022 966 
Q 3022 478 2636 193 
Q 2250 -91 1575 -91 
Q 1294 -91 989 -36 
Q 684 19 347 128 
L 347 722 
Q 666 556 975 473 
Q 1284 391 1588 391 
Q 1994 391 2212 530 
Q 2431 669 2431 922 
Q 2431 1156 2273 1281 
Q 2116 1406 1581 1522 
L 1381 1569 
Q 847 1681 609 1914 
Q 372 2147 372 2553 
Q 372 3047 722 3315 
Q 1072 3584 1716 3584 
Q 2034 3584 2315 3537 
Q 2597 3491 2834 3397 
z
" transform="scale(0.015625)"/>
       </defs>
       <use xlink:href="#DejaVuSans-2b"/>
       <use xlink:href="#DejaVuSans-70" transform="translate(83.789062 0)"/>
       <use xlink:href="#DejaVuSans-73" transform="translate(147.265625 0)"/>
      </g>
     </g>
    </g>
    <g id="xtick_6">
     <g id="line2d_6">
      <g>
       <use xlink:href="#ma388d0dd23" x="270.181818" y="100.608" style="stroke: #000000; stroke-width: 0.8"/>
      </g>
     </g>
     <g id="text_6">
      <!-- +$\pi$t/2 -->
      <g transform="translate(256.331818 115.206437) scale(0.1 -0.1)">
       <defs>
        <path id="DejaVuSans-Oblique-3c0" d="M 584 3500 
L 3938 3500 
L 3825 2925 
L 3384 2925 
L 2966 775 
Q 2922 550 2981 450 
Q 3038 353 3209 353 
Q 3256 353 3325 363 
Q 3397 369 3419 372 
L 3338 -44 
Q 3222 -84 3103 -103 
Q 2981 -122 2866 -122 
Q 2491 -122 2388 81 
Q 2284 288 2391 838 
L 2797 2925 
L 1506 2925 
L 938 0 
L 350 0 
L 919 2925 
L 472 2925 
L 584 3500 
z
" transform="scale(0.015625)"/>
        <path id="DejaVuSans-74" d="M 1172 4494 
L 1172 3500 
L 2356 3500 
L 2356 3053 
L 1172 3053 
L 1172 1153 
Q 1172 725 1289 603 
Q 1406 481 1766 481 
L 2356 481 
L 2356 0 
L 1766 0 
Q 1100 0 847 248 
Q 594 497 594 1153 
L 594 3053 
L 172 3053 
L 172 3500 
L 594 3500 
L 594 4494 
L 1172 4494 
z
" transform="scale(0.015625)"/>
        <path id="DejaVuSans-2f" d="M 1625 4666 
L 2156 4666 
L 531 -594 
L 0 -594 
L 1625 4666 
z
" transform="scale(0.015625)"/>
        <path id="DejaVuSans-32" d="M 1228 531 
L 3431 531 
L 3431 0 
L 469 0 
L 469 531 
Q 828 903 1448 1529 
Q 2069 2156 2228 2338 
Q 2531 2678 2651 2914 
Q 2772 3150 2772 3378 
Q 2772 3750 2511 3984 
Q 2250 4219 1831 4219 
Q 1534 4219 1204 4116 
Q 875 4013 500 3803 
L 500 4441 
Q 881 4594 1212 4672 
Q 1544 4750 1819 4750 
Q 2544 4750 2975 4387 
Q 3406 4025 3406 3419 
Q 3406 3131 3298 2873 
Q 3191 2616 2906 2266 
Q 2828 2175 2409 1742 
Q 1991 1309 1228 531 
z
" transform="scale(0.015625)"/>
       </defs>
       <use xlink:href="#DejaVuSans-2b" transform="translate(0 0.78125)"/>
       <use xlink:href="#DejaVuSans-Oblique-3c0" transform="translate(83.789062 0.78125)"/>
       <use xlink:href="#DejaVuSans-74" transform="translate(143.994141 0.78125)"/>
       <use xlink:href="#DejaVuSans-2f" transform="translate(183.203125 0.78125)"/>
       <use xlink:href="#DejaVuSans-32" transform="translate(213.269531 0.78125)"/>
      </g>
     </g>
    </g>
    <g id="xtick_7">
     <g id="line2d_7">
      <g>
       <use xlink:href="#ma388d0dd23" x="306.545455" y="100.608" style="stroke: #000000; stroke-width: 0.8"/>
      </g>
     </g>
     <g id="text_7">
      <!-- +ac -->
      <g transform="translate(296.01733 115.206437) scale(0.1 -0.1)">
       <defs>
        <path id="DejaVuSans-Bold-2b" d="M 3053 4013 
L 3053 2375 
L 4684 2375 
L 4684 1638 
L 3053 1638 
L 3053 0 
L 2309 0 
L 2309 1638 
L 678 1638 
L 678 2375 
L 2309 2375 
L 2309 4013 
L 3053 4013 
z
" transform="scale(0.015625)"/>
        <path id="DejaVuSans-Bold-61" d="M 2106 1575 
Q 1756 1575 1579 1456 
Q 1403 1338 1403 1106 
Q 1403 894 1545 773 
Q 1688 653 1941 653 
Q 2256 653 2472 879 
Q 2688 1106 2688 1447 
L 2688 1575 
L 2106 1575 
z
M 3816 1997 
L 3816 0 
L 2688 0 
L 2688 519 
Q 2463 200 2181 54 
Q 1900 -91 1497 -91 
Q 953 -91 614 226 
Q 275 544 275 1050 
Q 275 1666 698 1953 
Q 1122 2241 2028 2241 
L 2688 2241 
L 2688 2328 
Q 2688 2594 2478 2717 
Q 2269 2841 1825 2841 
Q 1466 2841 1156 2769 
Q 847 2697 581 2553 
L 581 3406 
Q 941 3494 1303 3539 
Q 1666 3584 2028 3584 
Q 2975 3584 3395 3211 
Q 3816 2838 3816 1997 
z
" transform="scale(0.015625)"/>
        <path id="DejaVuSans-Bold-63" d="M 3366 3391 
L 3366 2478 
Q 3138 2634 2908 2709 
Q 2678 2784 2431 2784 
Q 1963 2784 1702 2511 
Q 1441 2238 1441 1747 
Q 1441 1256 1702 982 
Q 1963 709 2431 709 
Q 2694 709 2930 787 
Q 3166 866 3366 1019 
L 3366 103 
Q 3103 6 2833 -42 
Q 2563 -91 2291 -91 
Q 1344 -91 809 395 
Q 275 881 275 1747 
Q 275 2613 809 3098 
Q 1344 3584 2291 3584 
Q 2566 3584 2833 3536 
Q 3100 3488 3366 3391 
z
" transform="scale(0.015625)"/>
       </defs>
       <use xlink:href="#DejaVuSans-Bold-2b"/>
       <use xlink:href="#DejaVuSans-Bold-61" transform="translate(83.789062 0)"/>
       <use xlink:href="#DejaVuSans-Bold-63" transform="translate(151.269531 0)"/>
      </g>
     </g>
    </g>
    <g id="xtick_8">
     <g id="line2d_8">
      <g>
       <use xlink:href="#ma388d0dd23" x="342.909091" y="100.608" style="stroke: #000000; stroke-width: 0.8"/>
      </g>
     </g>
     <g id="text_8">
      <!-- +$\pi$t/2 -->
      <g transform="translate(329.059091 115.206437) scale(0.1 -0.1)">
       <use xlink:href="#DejaVuSans-2b" transform="translate(0 0.78125)"/>
       <use xlink:href="#DejaVuSans-Oblique-3c0" transform="translate(83.789062 0.78125)"/>
       <use xlink:href="#DejaVuSans-74" transform="translate(143.994141 0.78125)"/>
       <use xlink:href="#DejaVuSans-2f" transform="translate(183.203125 0.78125)"/>
       <use xlink:href="#DejaVuSans-32" transform="translate(213.269531 0.78125)"/>
      </g>
     </g>
    </g>
    <g id="xtick_9">
     <g id="line2d_9">
      <g>
       <use xlink:href="#ma388d0dd23" x="379.272727" y="100.608" style="stroke: #000000; stroke-width: 0.8"/>
      </g>
     </g>
     <g id="text_9">
      <!-- +ps -->
      <g transform="translate(369.303977 115.206437) scale(0.1 -0.1)">
       <use xlink:href="#DejaVuSans-2b"/>
       <use xlink:href="#DejaVuSans-70" transform="translate(83.789062 0)"/>
       <use xlink:href="#DejaVuSans-73" transform="translate(147.265625 0)"/>
      </g>
     </g>
    </g>
    <g id="xtick_10">
     <g id="line2d_10">
      <g>
       <use xlink:href="#ma388d0dd23" x="415.636364" y="100.608" style="stroke: #000000; stroke-width: 0.8"/>
      </g>
     </g>
     <g id="text_10">
      <!-- +ex -->
      <g transform="translate(405.498082 115.206437) scale(0.1 -0.1)">
       <use xlink:href="#DejaVuSans-2b"/>
       <use xlink:href="#DejaVuSans-65" transform="translate(83.789062 0)"/>
       <use xlink:href="#DejaVuSans-78" transform="translate(143.5625 0)"/>
      </g>
     </g>
    </g>
    <g id="text_11">
     <!-- time -->
     <g transform="translate(409.407812 128.884562) scale(0.1 -0.1)">
      <defs>
       <path id="DejaVuSans-69" d="M 603 3500 
L 1178 3500 
L 1178 0 
L 603 0 
L 603 3500 
z
M 603 4863 
L 1178 4863 
L 1178 4134 
L 603 4134 
L 603 4863 
z
" transform="scale(0.015625)"/>
       <path id="DejaVuSans-6d" d="M 3328 2828 
Q 3544 3216 3844 3400 
Q 4144 3584 4550 3584 
Q 5097 3584 5394 3201 
Q 5691 2819 5691 2113 
L 5691 0 
L 5113 0 
L 5113 2094 
Q 5113 2597 4934 2840 
Q 4756 3084 4391 3084 
Q 3944 3084 3684 2787 
Q 3425 2491 3425 1978 
L 3425 0 
L 2847 0 
L 2847 2094 
Q 2847 2600 2669 2842 
Q 2491 3084 2119 3084 
Q 1678 3084 1418 2786 
Q 1159 2488 1159 1978 
L 1159 0 
L 581 0 
L 581 3500 
L 1159 3500 
L 1159 2956 
Q 1356 3278 1631 3431 
Q 1906 3584 2284 3584 
Q 2666 3584 2933 3390 
Q 3200 3197 3328 2828 
z
" transform="scale(0.015625)"/>
      </defs>
      <use xlink:href="#DejaVuSans-74"/>
      <use xlink:href="#DejaVuSans-69" transform="translate(39.208984 0)"/>
      <use xlink:href="#DejaVuSans-6d" transform="translate(66.992188 0)"/>
      <use xlink:href="#DejaVuSans-65" transform="translate(164.404297 0)"/>
     </g>
    </g>
   </g>
   <g id="matplotlib.axis_2"/>
   <g id="line2d_11">
    <path d="M 88.363636 44.16 
L 197.454545 44.16 
L 197.454545 97.92 
L 379.272727 97.92 
L 379.272727 44.16 
L 415.636364 44.16 
L 415.636364 97.92 
" clip-path="url(#p0048857262)" style="fill: none; stroke: #ff0000; stroke-width: 1.5; stroke-linecap: square"/>
   </g>
   <g id="patch_3">
    <path d="M 72 100.608 
L 72 41.472 
" style="fill: none; stroke: #000000; stroke-width: 0.8; stroke-linejoin: miter; stroke-linecap: square"/>
   </g>
   <g id="patch_4">
    <path d="M 432 100.608 
L 432 41.472 
" style="fill: none; stroke: #000000; stroke-width: 0.8; stroke-linejoin: miter; stroke-linecap: square"/>
   </g>
   <g id="patch_5">
    <path d="M 72 100.608 
L 432 100.608 
" style="fill: none; stroke: #000000; stroke-width: 0.8; stroke-linejoin: miter; stroke-linecap: square"/>
   </g>
   <g id="patch_6">
    <path d="M 72 41.472 
L 432 41.472 
" style="fill: none; stroke: #000000; stroke-width: 0.8; stroke-linejoin: miter; stroke-linecap: square"/>
   </g>
   <g id="text_12">
    <g id="patch_7">
     <path d="M 447 101.920362 
L 564.545313 101.920362 
L 564.545313 41.4288 
L 447 41.4288 
z
" style="fill: #808080; opacity: 0.5; stroke: #000000; stroke-linejoin: miter"/>
    </g>
    <!-- rd: readout delay -->
    <g transform="translate(450 52.027237) scale(0.1 -0.1)">
     <defs>
      <path id="DejaVuSans-3a" d="M 750 794 
L 1409 794 
L 1409 0 
L 750 0 
L 750 794 
z
M 750 3309 
L 1409 3309 
L 1409 2516 
L 750 2516 
L 750 3309 
z
" transform="scale(0.015625)"/>
      <path id="DejaVuSans-20" transform="scale(0.015625)"/>
      <path id="DejaVuSans-61" d="M 2194 1759 
Q 1497 1759 1228 1600 
Q 959 1441 959 1056 
Q 959 750 1161 570 
Q 1363 391 1709 391 
Q 2188 391 2477 730 
Q 2766 1069 2766 1631 
L 2766 1759 
L 2194 1759 
z
M 3341 1997 
L 3341 0 
L 2766 0 
L 2766 531 
Q 2569 213 2275 61 
Q 1981 -91 1556 -91 
Q 1019 -91 701 211 
Q 384 513 384 1019 
Q 384 1609 779 1909 
Q 1175 2209 1959 2209 
L 2766 2209 
L 2766 2266 
Q 2766 2663 2505 2880 
Q 2244 3097 1772 3097 
Q 1472 3097 1187 3025 
Q 903 2953 641 2809 
L 641 3341 
Q 956 3463 1253 3523 
Q 1550 3584 1831 3584 
Q 2591 3584 2966 3190 
Q 3341 2797 3341 1997 
z
" transform="scale(0.015625)"/>
      <path id="DejaVuSans-6f" d="M 1959 3097 
Q 1497 3097 1228 2736 
Q 959 2375 959 1747 
Q 959 1119 1226 758 
Q 1494 397 1959 397 
Q 2419 397 2687 759 
Q 2956 1122 2956 1747 
Q 2956 2369 2687 2733 
Q 2419 3097 1959 3097 
z
M 1959 3584 
Q 2709 3584 3137 3096 
Q 3566 2609 3566 1747 
Q 3566 888 3137 398 
Q 2709 -91 1959 -91 
Q 1206 -91 779 398 
Q 353 888 353 1747 
Q 353 2609 779 3096 
Q 1206 3584 1959 3584 
z
" transform="scale(0.015625)"/>
      <path id="DejaVuSans-75" d="M 544 1381 
L 544 3500 
L 1119 3500 
L 1119 1403 
Q 1119 906 1312 657 
Q 1506 409 1894 409 
Q 2359 409 2629 706 
Q 2900 1003 2900 1516 
L 2900 3500 
L 3475 3500 
L 3475 0 
L 2900 0 
L 2900 538 
Q 2691 219 2414 64 
Q 2138 -91 1772 -91 
Q 1169 -91 856 284 
Q 544 659 544 1381 
z
M 1991 3584 
L 1991 3584 
z
" transform="scale(0.015625)"/>
      <path id="DejaVuSans-6c" d="M 603 4863 
L 1178 4863 
L 1178 0 
L 603 0 
L 603 4863 
z
" transform="scale(0.015625)"/>
      <path id="DejaVuSans-79" d="M 2059 -325 
Q 1816 -950 1584 -1140 
Q 1353 -1331 966 -1331 
L 506 -1331 
L 506 -850 
L 844 -850 
Q 1081 -850 1212 -737 
Q 1344 -625 1503 -206 
L 1606 56 
L 191 3500 
L 800 3500 
L 1894 763 
L 2988 3500 
L 3597 3500 
L 2059 -325 
z
" transform="scale(0.015625)"/>
     </defs>
     <use xlink:href="#DejaVuSans-72"/>
     <use xlink:href="#DejaVuSans-64" transform="translate(39.363281 0)"/>
     <use xlink:href="#DejaVuSans-3a" transform="translate(102.839844 0)"/>
     <use xlink:href="#DejaVuSans-20" transform="translate(136.53125 0)"/>
     <use xlink:href="#DejaVuSans-72" transform="translate(168.318359 0)"/>
     <use xlink:href="#DejaVuSans-65" transform="translate(207.181641 0)"/>
     <use xlink:href="#DejaVuSans-61" transform="translate(268.705078 0)"/>
     <use xlink:href="#DejaVuSans-64" transform="translate(329.984375 0)"/>
     <use xlink:href="#DejaVuSans-6f" transform="translate(393.460938 0)"/>
     <use xlink:href="#DejaVuSans-75" transform="translate(454.642578 0)"/>
     <use xlink:href="#DejaVuSans-74" transform="translate(518.021484 0)"/>
     <use xlink:href="#DejaVuSans-20" transform="translate(557.230469 0)"/>
     <use xlink:href="#DejaVuSans-64" transform="translate(589.017578 0)"/>
     <use xlink:href="#DejaVuSans-65" transform="translate(652.494141 0)"/>
     <use xlink:href="#DejaVuSans-6c" transform="translate(714.017578 0)"/>
     <use xlink:href="#DejaVuSans-61" transform="translate(741.800781 0)"/>
     <use xlink:href="#DejaVuSans-79" transform="translate(803.080078 0)"/>
    </g>
    <!-- ex: exposure time -->
    <g transform="translate(450 63.22505) scale(0.1 -0.1)">
     <use xlink:href="#DejaVuSans-65"/>
     <use xlink:href="#DejaVuSans-78" transform="translate(59.773438 0)"/>
     <use xlink:href="#DejaVuSans-3a" transform="translate(118.953125 0)"/>
     <use xlink:href="#DejaVuSans-20" transform="translate(152.644531 0)"/>
     <use xlink:href="#DejaVuSans-65" transform="translate(184.431641 0)"/>
     <use xlink:href="#DejaVuSans-78" transform="translate(244.205078 0)"/>
     <use xlink:href="#DejaVuSans-70" transform="translate(303.384766 0)"/>
     <use xlink:href="#DejaVuSans-6f" transform="translate(366.861328 0)"/>
     <use xlink:href="#DejaVuSans-73" transform="translate(428.042969 0)"/>
     <use xlink:href="#DejaVuSans-75" transform="translate(480.142578 0)"/>
     <use xlink:href="#DejaVuSans-72" transform="translate(543.521484 0)"/>
     <use xlink:href="#DejaVuSans-65" transform="translate(582.384766 0)"/>
     <use xlink:href="#DejaVuSans-20" transform="translate(643.908203 0)"/>
     <use xlink:href="#DejaVuSans-74" transform="translate(675.695312 0)"/>
     <use xlink:href="#DejaVuSans-69" transform="translate(714.904297 0)"/>
     <use xlink:href="#DejaVuSans-6d" transform="translate(742.6875 0)"/>
     <use xlink:href="#DejaVuSans-65" transform="translate(840.099609 0)"/>
    </g>
    <!-- ps: pulse spacing -->
    <g transform="translate(450 74.422862) scale(0.1 -0.1)">
     <defs>
      <path id="DejaVuSans-63" d="M 3122 3366 
L 3122 2828 
Q 2878 2963 2633 3030 
Q 2388 3097 2138 3097 
Q 1578 3097 1268 2742 
Q 959 2388 959 1747 
Q 959 1106 1268 751 
Q 1578 397 2138 397 
Q 2388 397 2633 464 
Q 2878 531 3122 666 
L 3122 134 
Q 2881 22 2623 -34 
Q 2366 -91 2075 -91 
Q 1284 -91 818 406 
Q 353 903 353 1747 
Q 353 2603 823 3093 
Q 1294 3584 2113 3584 
Q 2378 3584 2631 3529 
Q 2884 3475 3122 3366 
z
" transform="scale(0.015625)"/>
      <path id="DejaVuSans-6e" d="M 3513 2113 
L 3513 0 
L 2938 0 
L 2938 2094 
Q 2938 2591 2744 2837 
Q 2550 3084 2163 3084 
Q 1697 3084 1428 2787 
Q 1159 2491 1159 1978 
L 1159 0 
L 581 0 
L 581 3500 
L 1159 3500 
L 1159 2956 
Q 1366 3272 1645 3428 
Q 1925 3584 2291 3584 
Q 2894 3584 3203 3211 
Q 3513 2838 3513 2113 
z
" transform="scale(0.015625)"/>
      <path id="DejaVuSans-67" d="M 2906 1791 
Q 2906 2416 2648 2759 
Q 2391 3103 1925 3103 
Q 1463 3103 1205 2759 
Q 947 2416 947 1791 
Q 947 1169 1205 825 
Q 1463 481 1925 481 
Q 2391 481 2648 825 
Q 2906 1169 2906 1791 
z
M 3481 434 
Q 3481 -459 3084 -895 
Q 2688 -1331 1869 -1331 
Q 1566 -1331 1297 -1286 
Q 1028 -1241 775 -1147 
L 775 -588 
Q 1028 -725 1275 -790 
Q 1522 -856 1778 -856 
Q 2344 -856 2625 -561 
Q 2906 -266 2906 331 
L 2906 616 
Q 2728 306 2450 153 
Q 2172 0 1784 0 
Q 1141 0 747 490 
Q 353 981 353 1791 
Q 353 2603 747 3093 
Q 1141 3584 1784 3584 
Q 2172 3584 2450 3431 
Q 2728 3278 2906 2969 
L 2906 3500 
L 3481 3500 
L 3481 434 
z
" transform="scale(0.015625)"/>
     </defs>
     <use xlink:href="#DejaVuSans-70"/>
     <use xlink:href="#DejaVuSans-73" transform="translate(63.476562 0)"/>
     <use xlink:href="#DejaVuSans-3a" transform="translate(115.576172 0)"/>
     <use xlink:href="#DejaVuSans-20" transform="translate(149.267578 0)"/>
     <use xlink:href="#DejaVuSans-70" transform="translate(181.054688 0)"/>
     <use xlink:href="#DejaVuSans-75" transform="translate(244.53125 0)"/>
     <use xlink:href="#DejaVuSans-6c" transform="translate(307.910156 0)"/>
     <use xlink:href="#DejaVuSans-73" transform="translate(335.693359 0)"/>
     <use xlink:href="#DejaVuSans-65" transform="translate(387.792969 0)"/>
     <use xlink:href="#DejaVuSans-20" transform="translate(449.316406 0)"/>
     <use xlink:href="#DejaVuSans-73" transform="translate(481.103516 0)"/>
     <use xlink:href="#DejaVuSans-70" transform="translate(533.203125 0)"/>
     <use xlink:href="#DejaVuSans-61" transform="translate(596.679688 0)"/>
     <use xlink:href="#DejaVuSans-63" transform="translate(657.958984 0)"/>
     <use xlink:href="#DejaVuSans-69" transform="translate(712.939453 0)"/>
     <use xlink:href="#DejaVuSans-6e" transform="translate(740.722656 0)"/>
     <use xlink:href="#DejaVuSans-67" transform="translate(804.101562 0)"/>
    </g>
    <!-- $\pi$t: pi time -->
    <g transform="translate(450 85.62255) scale(0.1 -0.1)">
     <use xlink:href="#DejaVuSans-Oblique-3c0" transform="translate(0 0.015625)"/>
     <use xlink:href="#DejaVuSans-74" transform="translate(60.205078 0.015625)"/>
     <use xlink:href="#DejaVuSans-3a" transform="translate(99.414062 0.015625)"/>
     <use xlink:href="#DejaVuSans-20" transform="translate(133.105469 0.015625)"/>
     <use xlink:href="#DejaVuSans-70" transform="translate(164.892578 0.015625)"/>
     <use xlink:href="#DejaVuSans-69" transform="translate(228.369141 0.015625)"/>
     <use xlink:href="#DejaVuSans-20" transform="translate(256.152344 0.015625)"/>
     <use xlink:href="#DejaVuSans-74" transform="translate(287.939453 0.015625)"/>
     <use xlink:href="#DejaVuSans-69" transform="translate(327.148438 0.015625)"/>
     <use xlink:href="#DejaVuSans-6d" transform="translate(354.931641 0.015625)"/>
     <use xlink:href="#DejaVuSans-65" transform="translate(452.34375 0.015625)"/>
    </g>
    <!-- ac: accumulation time -->
    <g transform="translate(450 96.840675) scale(0.1 -0.1)">
     <use xlink:href="#DejaVuSans-61"/>
     <use xlink:href="#DejaVuSans-63" transform="translate(61.279297 0)"/>
     <use xlink:href="#DejaVuSans-3a" transform="translate(116.259766 0)"/>
     <use xlink:href="#DejaVuSans-20" transform="translate(149.951172 0)"/>
     <use xlink:href="#DejaVuSans-61" transform="translate(181.738281 0)"/>
     <use xlink:href="#DejaVuSans-63" transform="translate(243.017578 0)"/>
     <use xlink:href="#DejaVuSans-63" transform="translate(297.998047 0)"/>
     <use xlink:href="#DejaVuSans-75" transform="translate(352.978516 0)"/>
     <use xlink:href="#DejaVuSans-6d" transform="translate(416.357422 0)"/>
     <use xlink:href="#DejaVuSans-75" transform="translate(513.769531 0)"/>
     <use xlink:href="#DejaVuSans-6c" transform="translate(577.148438 0)"/>
     <use xlink:href="#DejaVuSans-61" transform="translate(604.931641 0)"/>
     <use xlink:href="#DejaVuSans-74" transform="translate(666.210938 0)"/>
     <use xlink:href="#DejaVuSans-69" transform="translate(705.419922 0)"/>
     <use xlink:href="#DejaVuSans-6f" transform="translate(733.203125 0)"/>
     <use xlink:href="#DejaVuSans-6e" transform="translate(794.384766 0)"/>
     <use xlink:href="#DejaVuSans-20" transform="translate(857.763672 0)"/>
     <use xlink:href="#DejaVuSans-74" transform="translate(889.550781 0)"/>
     <use xlink:href="#DejaVuSans-69" transform="translate(928.759766 0)"/>
     <use xlink:href="#DejaVuSans-6d" transform="translate(956.542969 0)"/>
     <use xlink:href="#DejaVuSans-65" transform="translate(1053.955078 0)"/>
    </g>
   </g>
   <g id="text_13">
    <!-- AOM -->
    <g transform="translate(238.100625 35.472) scale(0.12 -0.12)">
     <defs>
      <path id="DejaVuSans-41" d="M 2188 4044 
L 1331 1722 
L 3047 1722 
L 2188 4044 
z
M 1831 4666 
L 2547 4666 
L 4325 0 
L 3669 0 
L 3244 1197 
L 1141 1197 
L 716 0 
L 50 0 
L 1831 4666 
z
" transform="scale(0.015625)"/>
      <path id="DejaVuSans-4f" d="M 2522 4238 
Q 1834 4238 1429 3725 
Q 1025 3213 1025 2328 
Q 1025 1447 1429 934 
Q 1834 422 2522 422 
Q 3209 422 3611 934 
Q 4013 1447 4013 2328 
Q 4013 3213 3611 3725 
Q 3209 4238 2522 4238 
z
M 2522 4750 
Q 3503 4750 4090 4092 
Q 4678 3434 4678 2328 
Q 4678 1225 4090 567 
Q 3503 -91 2522 -91 
Q 1538 -91 948 565 
Q 359 1222 359 2328 
Q 359 3434 948 4092 
Q 1538 4750 2522 4750 
z
" transform="scale(0.015625)"/>
      <path id="DejaVuSans-4d" d="M 628 4666 
L 1569 4666 
L 2759 1491 
L 3956 4666 
L 4897 4666 
L 4897 0 
L 4281 0 
L 4281 4097 
L 3078 897 
L 2444 897 
L 1241 4097 
L 1241 0 
L 628 0 
L 628 4666 
z
" transform="scale(0.015625)"/>
     </defs>
     <use xlink:href="#DejaVuSans-41"/>
     <use xlink:href="#DejaVuSans-4f" transform="translate(66.658203 0)"/>
     <use xlink:href="#DejaVuSans-4d" transform="translate(145.369141 0)"/>
    </g>
   </g>
  </g>
  <g id="axes_2">
   <g id="patch_8">
    <path d="M 72 204.096 
L 432 204.096 
L 432 144.96 
L 72 144.96 
z
" style="fill: #ffffff"/>
   </g>
   <g id="matplotlib.axis_3">
    <g id="xtick_11">
     <g id="line2d_12">
      <g>
       <use xlink:href="#ma388d0dd23" x="88.363636" y="204.096" style="stroke: #000000; stroke-width: 0.8"/>
      </g>
     </g>
     <g id="text_14">
      <!-- 0 -->
      <g transform="translate(85.182386 218.694437) scale(0.1 -0.1)">
       <use xlink:href="#DejaVuSans-30"/>
      </g>
     </g>
    </g>
    <g id="xtick_12">
     <g id="line2d_13">
      <g>
       <use xlink:href="#ma388d0dd23" x="124.727273" y="204.096" style="stroke: #000000; stroke-width: 0.8"/>
      </g>
     </g>
     <g id="text_15">
      <!-- +rd -->
      <g transform="translate(115.395241 218.694437) scale(0.1 -0.1)">
       <use xlink:href="#DejaVuSans-2b"/>
       <use xlink:href="#DejaVuSans-72" transform="translate(83.789062 0)"/>
       <use xlink:href="#DejaVuSans-64" transform="translate(123.152344 0)"/>
      </g>
     </g>
    </g>
    <g id="xtick_13">
     <g id="line2d_14">
      <g>
       <use xlink:href="#ma388d0dd23" x="161.090909" y="204.096" style="stroke: #000000; stroke-width: 0.8"/>
      </g>
     </g>
     <g id="text_16">
      <!-- +ex -->
      <g transform="translate(150.952628 218.694437) scale(0.1 -0.1)">
       <use xlink:href="#DejaVuSans-2b"/>
       <use xlink:href="#DejaVuSans-65" transform="translate(83.789062 0)"/>
       <use xlink:href="#DejaVuSans-78" transform="translate(143.5625 0)"/>
      </g>
     </g>
    </g>
    <g id="xtick_14">
     <g id="line2d_15">
      <g>
       <use xlink:href="#ma388d0dd23" x="197.454545" y="204.096" style="stroke: #000000; stroke-width: 0.8"/>
      </g>
     </g>
     <g id="text_17">
      <!-- +rd -->
      <g transform="translate(188.122514 218.694437) scale(0.1 -0.1)">
       <use xlink:href="#DejaVuSans-2b"/>
       <use xlink:href="#DejaVuSans-72" transform="translate(83.789062 0)"/>
       <use xlink:href="#DejaVuSans-64" transform="translate(123.152344 0)"/>
      </g>
     </g>
    </g>
    <g id="xtick_15">
     <g id="line2d_16">
      <g>
       <use xlink:href="#ma388d0dd23" x="233.818182" y="204.096" style="stroke: #000000; stroke-width: 0.8"/>
      </g>
     </g>
     <g id="text_18">
      <!-- +ps -->
      <g transform="translate(223.849432 218.694437) scale(0.1 -0.1)">
       <use xlink:href="#DejaVuSans-2b"/>
       <use xlink:href="#DejaVuSans-70" transform="translate(83.789062 0)"/>
       <use xlink:href="#DejaVuSans-73" transform="translate(147.265625 0)"/>
      </g>
     </g>
    </g>
    <g id="xtick_16">
     <g id="line2d_17">
      <g>
       <use xlink:href="#ma388d0dd23" x="270.181818" y="204.096" style="stroke: #000000; stroke-width: 0.8"/>
      </g>
     </g>
     <g id="text_19">
      <!-- +$\pi$t/2 -->
      <g transform="translate(256.331818 218.694437) scale(0.1 -0.1)">
       <use xlink:href="#DejaVuSans-2b" transform="translate(0 0.78125)"/>
       <use xlink:href="#DejaVuSans-Oblique-3c0" transform="translate(83.789062 0.78125)"/>
       <use xlink:href="#DejaVuSans-74" transform="translate(143.994141 0.78125)"/>
       <use xlink:href="#DejaVuSans-2f" transform="translate(183.203125 0.78125)"/>
       <use xlink:href="#DejaVuSans-32" transform="translate(213.269531 0.78125)"/>
      </g>
     </g>
    </g>
    <g id="xtick_17">
     <g id="line2d_18">
      <g>
       <use xlink:href="#ma388d0dd23" x="306.545455" y="204.096" style="stroke: #000000; stroke-width: 0.8"/>
      </g>
     </g>
     <g id="text_20">
      <!-- +ac -->
      <g transform="translate(296.01733 218.694437) scale(0.1 -0.1)">
       <use xlink:href="#DejaVuSans-Bold-2b"/>
       <use xlink:href="#DejaVuSans-Bold-61" transform="translate(83.789062 0)"/>
       <use xlink:href="#DejaVuSans-Bold-63" transform="translate(151.269531 0)"/>
      </g>
     </g>
    </g>
    <g id="xtick_18">
     <g id="line2d_19">
      <g>
       <use xlink:href="#ma388d0dd23" x="342.909091" y="204.096" style="stroke: #000000; stroke-width: 0.8"/>
      </g>
     </g>
     <g id="text_21">
      <!-- +$\pi$t/2 -->
      <g transform="translate(329.059091 218.694437) scale(0.1 -0.1)">
       <use xlink:href="#DejaVuSans-2b" transform="translate(0 0.78125)"/>
       <use xlink:href="#DejaVuSans-Oblique-3c0" transform="translate(83.789062 0.78125)"/>
       <use xlink:href="#DejaVuSans-74" transform="translate(143.994141 0.78125)"/>
       <use xlink:href="#DejaVuSans-2f" transform="translate(183.203125 0.78125)"/>
       <use xlink:href="#DejaVuSans-32" transform="translate(213.269531 0.78125)"/>
      </g>
     </g>
    </g>
    <g id="xtick_19">
     <g id="line2d_20">
      <g>
       <use xlink:href="#ma388d0dd23" x="379.272727" y="204.096" style="stroke: #000000; stroke-width: 0.8"/>
      </g>
     </g>
     <g id="text_22">
      <!-- +ps -->
      <g transform="translate(369.303977 218.694437) scale(0.1 -0.1)">
       <use xlink:href="#DejaVuSans-2b"/>
       <use xlink:href="#DejaVuSans-70" transform="translate(83.789062 0)"/>
       <use xlink:href="#DejaVuSans-73" transform="translate(147.265625 0)"/>
      </g>
     </g>
    </g>
    <g id="xtick_20">
     <g id="line2d_21">
      <g>
       <use xlink:href="#ma388d0dd23" x="415.636364" y="204.096" style="stroke: #000000; stroke-width: 0.8"/>
      </g>
     </g>
     <g id="text_23">
      <!-- +ex -->
      <g transform="translate(405.498082 218.694437) scale(0.1 -0.1)">
       <use xlink:href="#DejaVuSans-2b"/>
       <use xlink:href="#DejaVuSans-65" transform="translate(83.789062 0)"/>
       <use xlink:href="#DejaVuSans-78" transform="translate(143.5625 0)"/>
      </g>
     </g>
    </g>
    <g id="text_24">
     <!-- time -->
     <g transform="translate(409.407812 232.372562) scale(0.1 -0.1)">
      <use xlink:href="#DejaVuSans-74"/>
      <use xlink:href="#DejaVuSans-69" transform="translate(39.208984 0)"/>
      <use xlink:href="#DejaVuSans-6d" transform="translate(66.992188 0)"/>
      <use xlink:href="#DejaVuSans-65" transform="translate(164.404297 0)"/>
     </g>
    </g>
   </g>
   <g id="matplotlib.axis_4"/>
   <g id="line2d_22">
    <path d="M 88.363636 201.408 
L 233.818182 201.408 
L 233.818182 147.648 
L 270.181818 147.648 
L 270.181818 201.408 
L 306.545455 201.408 
L 306.545455 147.648 
L 342.909091 147.648 
L 342.909091 201.408 
L 415.636364 201.408 
L 415.636364 201.408 
" clip-path="url(#p6845bd2b2d)" style="fill: none; stroke: #008000; stroke-width: 1.5; stroke-linecap: square"/>
   </g>
   <g id="patch_9">
    <path d="M 72 204.096 
L 72 144.96 
" style="fill: none; stroke: #000000; stroke-width: 0.8; stroke-linejoin: miter; stroke-linecap: square"/>
   </g>
   <g id="patch_10">
    <path d="M 432 204.096 
L 432 144.96 
" style="fill: none; stroke: #000000; stroke-width: 0.8; stroke-linejoin: miter; stroke-linecap: square"/>
   </g>
   <g id="patch_11">
    <path d="M 72 204.096 
L 432 204.096 
" style="fill: none; stroke: #000000; stroke-width: 0.8; stroke-linejoin: miter; stroke-linecap: square"/>
   </g>
   <g id="patch_12">
    <path d="M 72 144.96 
L 432 144.96 
" style="fill: none; stroke: #000000; stroke-width: 0.8; stroke-linejoin: miter; stroke-linecap: square"/>
   </g>
   <g id="text_25">
    <!-- MW -->
    <g transform="translate(240.890625 138.96) scale(0.12 -0.12)">
     <defs>
      <path id="DejaVuSans-57" d="M 213 4666 
L 850 4666 
L 1831 722 
L 2809 4666 
L 3519 4666 
L 4500 722 
L 5478 4666 
L 6119 4666 
L 4947 0 
L 4153 0 
L 3169 4050 
L 2175 0 
L 1381 0 
L 213 4666 
z
" transform="scale(0.015625)"/>
     </defs>
     <use xlink:href="#DejaVuSans-4d"/>
     <use xlink:href="#DejaVuSans-57" transform="translate(86.279297 0)"/>
    </g>
   </g>
  </g>
  <g id="axes_3">
   <g id="patch_13">
    <path d="M 72 307.584 
L 432 307.584 
L 432 248.448 
L 72 248.448 
z
" style="fill: #ffffff"/>
   </g>
   <g id="matplotlib.axis_5">
    <g id="xtick_21">
     <g id="line2d_23">
      <g>
       <use xlink:href="#ma388d0dd23" x="88.363636" y="307.584" style="stroke: #000000; stroke-width: 0.8"/>
      </g>
     </g>
     <g id="text_26">
      <!-- 0 -->
      <g transform="translate(85.182386 322.182437) scale(0.1 -0.1)">
       <use xlink:href="#DejaVuSans-30"/>
      </g>
     </g>
    </g>
    <g id="xtick_22">
     <g id="line2d_24">
      <g>
       <use xlink:href="#ma388d0dd23" x="124.727273" y="307.584" style="stroke: #000000; stroke-width: 0.8"/>
      </g>
     </g>
     <g id="text_27">
      <!-- +rd -->
      <g transform="translate(115.395241 322.182437) scale(0.1 -0.1)">
       <use xlink:href="#DejaVuSans-2b"/>
       <use xlink:href="#DejaVuSans-72" transform="translate(83.789062 0)"/>
       <use xlink:href="#DejaVuSans-64" transform="translate(123.152344 0)"/>
      </g>
     </g>
    </g>
    <g id="xtick_23">
     <g id="line2d_25">
      <g>
       <use xlink:href="#ma388d0dd23" x="161.090909" y="307.584" style="stroke: #000000; stroke-width: 0.8"/>
      </g>
     </g>
     <g id="text_28">
      <!-- +ex -->
      <g transform="translate(150.952628 322.182437) scale(0.1 -0.1)">
       <use xlink:href="#DejaVuSans-2b"/>
       <use xlink:href="#DejaVuSans-65" transform="translate(83.789062 0)"/>
       <use xlink:href="#DejaVuSans-78" transform="translate(143.5625 0)"/>
      </g>
     </g>
    </g>
    <g id="xtick_24">
     <g id="line2d_26">
      <g>
       <use xlink:href="#ma388d0dd23" x="197.454545" y="307.584" style="stroke: #000000; stroke-width: 0.8"/>
      </g>
     </g>
     <g id="text_29">
      <!-- +rd -->
      <g transform="translate(188.122514 322.182437) scale(0.1 -0.1)">
       <use xlink:href="#DejaVuSans-2b"/>
       <use xlink:href="#DejaVuSans-72" transform="translate(83.789062 0)"/>
       <use xlink:href="#DejaVuSans-64" transform="translate(123.152344 0)"/>
      </g>
     </g>
    </g>
    <g id="xtick_25">
     <g id="line2d_27">
      <g>
       <use xlink:href="#ma388d0dd23" x="233.818182" y="307.584" style="stroke: #000000; stroke-width: 0.8"/>
      </g>
     </g>
     <g id="text_30">
      <!-- +ps -->
      <g transform="translate(223.849432 322.182437) scale(0.1 -0.1)">
       <use xlink:href="#DejaVuSans-2b"/>
       <use xlink:href="#DejaVuSans-70" transform="translate(83.789062 0)"/>
       <use xlink:href="#DejaVuSans-73" transform="translate(147.265625 0)"/>
      </g>
     </g>
    </g>
    <g id="xtick_26">
     <g id="line2d_28">
      <g>
       <use xlink:href="#ma388d0dd23" x="270.181818" y="307.584" style="stroke: #000000; stroke-width: 0.8"/>
      </g>
     </g>
     <g id="text_31">
      <!-- +$\pi$t/2 -->
      <g transform="translate(256.331818 322.182437) scale(0.1 -0.1)">
       <use xlink:href="#DejaVuSans-2b" transform="translate(0 0.78125)"/>
       <use xlink:href="#DejaVuSans-Oblique-3c0" transform="translate(83.789062 0.78125)"/>
       <use xlink:href="#DejaVuSans-74" transform="translate(143.994141 0.78125)"/>
       <use xlink:href="#DejaVuSans-2f" transform="translate(183.203125 0.78125)"/>
       <use xlink:href="#DejaVuSans-32" transform="translate(213.269531 0.78125)"/>
      </g>
     </g>
    </g>
    <g id="xtick_27">
     <g id="line2d_29">
      <g>
       <use xlink:href="#ma388d0dd23" x="306.545455" y="307.584" style="stroke: #000000; stroke-width: 0.8"/>
      </g>
     </g>
     <g id="text_32">
      <!-- +ac -->
      <g transform="translate(296.01733 322.182437) scale(0.1 -0.1)">
       <use xlink:href="#DejaVuSans-Bold-2b"/>
       <use xlink:href="#DejaVuSans-Bold-61" transform="translate(83.789062 0)"/>
       <use xlink:href="#DejaVuSans-Bold-63" transform="translate(151.269531 0)"/>
      </g>
     </g>
    </g>
    <g id="xtick_28">
     <g id="line2d_30">
      <g>
       <use xlink:href="#ma388d0dd23" x="342.909091" y="307.584" style="stroke: #000000; stroke-width: 0.8"/>
      </g>
     </g>
     <g id="text_33">
      <!-- +$\pi$t/2 -->
      <g transform="translate(329.059091 322.182437) scale(0.1 -0.1)">
       <use xlink:href="#DejaVuSans-2b" transform="translate(0 0.78125)"/>
       <use xlink:href="#DejaVuSans-Oblique-3c0" transform="translate(83.789062 0.78125)"/>
       <use xlink:href="#DejaVuSans-74" transform="translate(143.994141 0.78125)"/>
       <use xlink:href="#DejaVuSans-2f" transform="translate(183.203125 0.78125)"/>
       <use xlink:href="#DejaVuSans-32" transform="translate(213.269531 0.78125)"/>
      </g>
     </g>
    </g>
    <g id="xtick_29">
     <g id="line2d_31">
      <g>
       <use xlink:href="#ma388d0dd23" x="379.272727" y="307.584" style="stroke: #000000; stroke-width: 0.8"/>
      </g>
     </g>
     <g id="text_34">
      <!-- +ps -->
      <g transform="translate(369.303977 322.182437) scale(0.1 -0.1)">
       <use xlink:href="#DejaVuSans-2b"/>
       <use xlink:href="#DejaVuSans-70" transform="translate(83.789062 0)"/>
       <use xlink:href="#DejaVuSans-73" transform="translate(147.265625 0)"/>
      </g>
     </g>
    </g>
    <g id="xtick_30">
     <g id="line2d_32">
      <g>
       <use xlink:href="#ma388d0dd23" x="415.636364" y="307.584" style="stroke: #000000; stroke-width: 0.8"/>
      </g>
     </g>
     <g id="text_35">
      <!-- +ex -->
      <g transform="translate(405.498082 322.182437) scale(0.1 -0.1)">
       <use xlink:href="#DejaVuSans-2b"/>
       <use xlink:href="#DejaVuSans-65" transform="translate(83.789062 0)"/>
       <use xlink:href="#DejaVuSans-78" transform="translate(143.5625 0)"/>
      </g>
     </g>
    </g>
    <g id="text_36">
     <!-- time -->
     <g transform="translate(409.407812 335.860562) scale(0.1 -0.1)">
      <use xlink:href="#DejaVuSans-74"/>
      <use xlink:href="#DejaVuSans-69" transform="translate(39.208984 0)"/>
      <use xlink:href="#DejaVuSans-6d" transform="translate(66.992188 0)"/>
      <use xlink:href="#DejaVuSans-65" transform="translate(164.404297 0)"/>
     </g>
    </g>
   </g>
   <g id="matplotlib.axis_6"/>
   <g id="line2d_33">
    <path d="M 88.363636 304.896 
L 124.727273 304.896 
L 124.727273 251.136 
L 161.090909 251.136 
L 161.090909 304.896 
L 379.272727 304.896 
L 379.272727 251.136 
L 415.636364 251.136 
L 415.636364 304.896 
" clip-path="url(#pd0d851cc6b)" style="fill: none; stroke: #0000ff; stroke-width: 1.5; stroke-linecap: square"/>
   </g>
   <g id="patch_14">
    <path d="M 72 307.584 
L 72 248.448 
" style="fill: none; stroke: #000000; stroke-width: 0.8; stroke-linejoin: miter; stroke-linecap: square"/>
   </g>
   <g id="patch_15">
    <path d="M 432 307.584 
L 432 248.448 
" style="fill: none; stroke: #000000; stroke-width: 0.8; stroke-linejoin: miter; stroke-linecap: square"/>
   </g>
   <g id="patch_16">
    <path d="M 72 307.584 
L 432 307.584 
" style="fill: none; stroke: #000000; stroke-width: 0.8; stroke-linejoin: miter; stroke-linecap: square"/>
   </g>
   <g id="patch_17">
    <path d="M 72 248.448 
L 432 248.448 
" style="fill: none; stroke: #000000; stroke-width: 0.8; stroke-linejoin: miter; stroke-linecap: square"/>
   </g>
   <g id="text_37">
    <!-- CAM -->
    <g transform="translate(238.529063 242.448) scale(0.12 -0.12)">
     <defs>
      <path id="DejaVuSans-43" d="M 4122 4306 
L 4122 3641 
Q 3803 3938 3442 4084 
Q 3081 4231 2675 4231 
Q 1875 4231 1450 3742 
Q 1025 3253 1025 2328 
Q 1025 1406 1450 917 
Q 1875 428 2675 428 
Q 3081 428 3442 575 
Q 3803 722 4122 1019 
L 4122 359 
Q 3791 134 3420 21 
Q 3050 -91 2638 -91 
Q 1578 -91 968 557 
Q 359 1206 359 2328 
Q 359 3453 968 4101 
Q 1578 4750 2638 4750 
Q 3056 4750 3426 4639 
Q 3797 4528 4122 4306 
z
" transform="scale(0.015625)"/>
     </defs>
     <use xlink:href="#DejaVuSans-43"/>
     <use xlink:href="#DejaVuSans-41" transform="translate(69.824219 0)"/>
     <use xlink:href="#DejaVuSans-4d" transform="translate(138.232422 0)"/>
    </g>
   </g>
  </g>
 </g>
 <defs>
  <clipPath id="p0048857262">
   <rect x="72" y="41.472" width="360" height="59.136"/>
  </clipPath>
  <clipPath id="p6845bd2b2d">
   <rect x="72" y="144.96" width="360" height="59.136"/>
  </clipPath>
  <clipPath id="pd0d851cc6b">
   <rect x="72" y="248.448" width="360" height="59.136"/>
  </clipPath>
 </defs>
</svg>
